<?xml version="1.0" encoding="utf-8" ?><svg xmlns="http://www.w3.org/2000/svg" xmlns:xlink="http://www.w3.org/1999/xlink" width="1024" height="1024" viewBox="0 0 1024 1024"><path fill="#FB8405" d="M725.762 355.84C817.178 348.796 896.962 417.269 903.87 508.695C910.777 600.121 842.187 679.804 750.75 686.576C659.505 693.333 580.026 624.918 573.133 533.683C566.24 442.449 634.538 362.868 725.762 355.84ZM738.8 575.198C758.279 575.147 776.221 564.608 785.751 547.62C795.282 530.632 794.924 509.827 784.816 493.176C774.707 476.526 756.413 466.61 736.944 467.228C707.442 468.164 684.159 492.615 684.666 522.128C685.174 551.64 709.283 575.276 738.8 575.198Z"/><path fill="#FB8405" d="M179.166 358.17C185.599 357.407 196.553 358.374 203.417 358.392L258.742 358.373L313.709 358.401C338.342 358.285 364.594 355.061 384.808 371.827C396.496 381.463 403.821 395.392 405.139 410.483C406.638 426.788 401.112 438.914 391.299 451.496C383.431 461.582 375.266 471.452 367.231 481.392C354.201 497.822 341.048 514.153 327.771 530.384C309.006 525.081 294.212 521.256 274.519 520.337C245.757 518.996 218.174 524.362 191.951 536.203C186.238 538.783 177.929 541.99 173.526 546.281C165.638 553.968 158.648 563.865 151.768 572.363C137.893 589.498 124.198 600.542 123.018 624.137C122.211 638.466 127.177 652.521 136.807 663.163C158.938 687.46 184.02 681.07 213.667 681.736C222.512 681.935 231.559 681.366 240.394 681.81C235.704 676.411 228.753 670.813 223.247 666.092C243.874 640.762 291.495 639.844 310.756 666.572C306.403 671.619 301.424 676.847 296.876 681.764C304.408 681.181 318.51 681.719 326.54 681.813C333.337 681.928 340.336 681.632 347.017 681.662C391.086 681.86 416.793 630.129 390.972 594.826C389.765 593.177 387.815 590.795 387.711 588.766L388.428 588.115C396.747 588.384 403.894 611.381 404.879 618.586C406.955 634.663 402.564 650.906 392.672 663.748C383.234 675.787 369.348 683.523 354.143 685.212C343.774 686.431 329.166 685.717 318.525 685.631L265.761 685.551L203.739 685.635C192.269 685.653 178.587 686.407 167.37 684.793C141.945 681.137 121.779 658.378 119.305 633.395C118.069 621.52 120.323 609.541 125.79 598.927C130.74 589.388 144.464 574.69 151.737 565.607L228.494 471.532C216.566 471.345 204.384 471.553 192.447 471.499C172.078 471.406 156.403 472.822 139.63 459.445C128.153 450.112 120.895 436.568 119.48 421.843C118.053 406.428 122.814 391.078 132.714 379.176C145.753 363.557 159.727 359.835 179.166 358.17Z"/><path fill="#FB8405" d="M485.418 359.212C500.845 357.99 513.222 361.592 525.734 370.556C554.869 391.429 550.524 424.864 550.466 456.292L550.44 525.453L550.474 593.774C550.478 604.767 550.966 625.365 549.381 635.643C547.952 645.114 544.083 654.05 538.155 661.572C528.068 674.527 514.9 682.373 498.625 684.476C482.11 686.202 467.602 682.244 454.476 671.882C442.33 662.313 434.555 648.251 432.911 632.875C431.396 619.876 432.122 599.484 432.185 586.022L432.068 518.34L432.291 450.509C432.318 426.908 429.025 400.432 445.151 381.193C456.158 368.061 468.337 361.162 485.418 359.212Z"/><path fill="#FB8405" d="M483.699 234.787C515.051 231.253 543.373 253.699 547.095 285.029C550.816 316.36 528.541 344.816 497.234 348.726C465.659 352.669 436.908 330.162 433.154 298.565C429.401 266.967 452.079 238.351 483.699 234.787Z"/><path fill="#FB8405" d="M259.414 536.212C260.613 536.052 261.821 535.959 263.031 535.931C302.282 535.09 348.531 550.793 377.686 577.48C392.025 590.605 369.789 608.139 360.391 617.218L360.032 616.815C337.369 591.632 306.542 578.26 272.893 576.389C270.565 576.189 268.23 576.096 265.894 576.108C228.562 576.075 199.263 591.141 173.257 616.953C155.973 599.94 138.29 589.662 164.942 570.171C194.831 548.312 222.813 539.234 259.414 536.212Z"/><path fill="#FB8405" d="M261.556 592.72C265.938 592.143 274.679 592.701 279.094 593.168C304.469 595.851 332.964 608.033 349.239 628.247C341.348 635.101 330.058 647.307 322.813 655.06C306.706 639.487 295.318 633.797 273.058 630.827C247.652 628.662 229.949 636.817 212.505 654.789C204.085 648.045 193.717 636.421 185.415 628.662C186.061 627.62 186.788 626.63 187.591 625.703C206.284 604.018 233.749 594.68 261.556 592.72Z"/><path fill="#FB8405" d="M699.925 749.937C706.063 749.918 713.37 749.632 719.252 750.768C726.706 755.973 725.46 764.371 716.465 766.957C712.486 767.049 708.393 767.009 704.404 767.02C704.503 769.964 705.578 775.016 701.996 775.341C698.532 773.06 699.892 754.436 699.925 749.937ZM718.392 762.325C722.344 751.965 711.103 753.885 704.379 753.975L704.454 763.554C708.527 763.597 715.124 764.197 718.392 762.325Z"/><path fill="#FB8405" d="M847.18 749.21C853.718 749.868 863.713 763.793 868.487 769.459C868.545 764.711 867.448 753.513 869.819 750.211C871.513 749.58 870.63 749.656 872.569 750.275C873.637 754.34 873.171 770.888 873.14 776.109C864.786 773.275 856.828 762.392 851.438 755.387C851.523 759.403 852.846 773.072 849.671 775.273L848.008 774.952C846.452 772.271 847.025 753.233 847.18 749.21Z"/><path fill="#FB8405" d="M175.373 749.554C179.5 749.345 186.156 748.831 188.081 753.237C187.766 755.214 188.213 754.44 186.838 755.718C183.625 756.151 180.904 753.424 177.761 753.193C170.21 752.793 163.964 762.554 169.958 768.472C174.139 772.6 187.332 776.126 185.856 766.237C183.746 765.572 180.752 766.396 177.333 765.673C177.546 764.912 177.8 763.604 178.415 763.181C180.593 761.684 187.6 762.06 190.085 762.045C190.157 764.118 190.691 771.533 189.822 772.349C181.725 779.951 165.734 774.935 163.11 765.448C162.301 762.519 162.707 759.388 164.235 756.763C166.716 752.549 170.859 750.706 175.373 749.554Z"/><path fill="#FB8405" d="M119.944 750.001C124.298 749.934 138.349 749.078 142.66 750.6C143.185 750.785 143.031 751.56 143.068 752.317C140.879 757.491 128.788 768.374 123.989 771.982C128.765 771.708 139.759 770.516 143.414 772.913C143.993 774.432 143.946 773.639 143.252 775.373C134.932 775.808 125.534 775.569 117.148 775.382C120.686 769.116 130.901 759.791 136.448 754.323C131.397 754.186 125.569 754.998 120.851 753.508C119.553 752.091 119.969 752.536 119.944 750.001Z"/><path fill="#FB8405" d="M628.585 761.395C628.506 757.838 627.73 752.511 629.985 750.055C631.744 749.591 630.846 749.613 632.762 750.267C633.972 753.413 633.618 771.659 633.295 775.759C629.976 775.475 628.497 775.301 628.373 771.403C628.305 769.251 628.483 766.818 628.547 764.656C623.184 764.79 617.82 764.812 612.457 764.721C612.52 767.549 613.23 773.417 611.213 775.282C609.044 775.41 609.947 775.682 608.262 774.878C607.097 770.773 607.402 754.371 607.66 749.496C614.363 750.717 612.635 755.639 612.441 761.435L628.585 761.395Z"/><path fill="#FB8405" d="M817.147 749.879C821.715 749.897 837.409 748.962 839.542 752.135L838.892 753.119C835.74 754.529 825.417 754.021 821.48 754.009C821.749 756.626 821.896 757.809 821.667 760.468C824.292 760.488 832.984 759.953 833.946 762.783C831.571 764.809 825.838 764.278 822.625 764.255L822.227 764.327C821.449 765.273 821.696 769.952 821.533 771.918C826.423 771.59 835.364 770.746 839.759 772.743L840.019 773.648L839.236 774.546C835.292 776.188 822.348 775.53 817.282 775.473C817.351 766.978 817.517 758.355 817.147 749.879Z"/><path fill="#FB8405" d="M754.683 749.67C758.89 749.308 765.596 749.258 766.049 754.419C764.158 757.101 755.054 751.893 749.562 754.906C744.281 757.804 745.039 763.909 747.505 768.141C750.373 773.063 759.407 772.433 763.826 769.738C764.247 769.278 763.928 769.561 764.983 769.191C766.922 770.067 768.043 771.753 769.467 773.419C762.355 775.696 752.675 777.504 746.229 772.688C743.397 770.612 741.579 767.432 741.227 763.938C740.276 755.373 746.749 750.36 754.683 749.67Z"/><path fill="#FB8405" d="M668.087 749.724C674.792 749.642 687.936 748.959 693.904 750.234L694.517 751.274C694.429 753.117 694.735 752.348 693.78 753.732C691.796 754.152 685.836 753.989 683.482 753.979L683.564 765.104C683.606 766.479 683.639 767.854 683.663 769.229C683.704 771.821 684.012 773.288 682.28 775.085C680.089 775.183 680.942 775.512 679.375 774.628C678.509 770.589 678.97 758.525 679.037 753.969C675.394 753.921 671.768 754.851 668.739 753.246C667.74 751.506 668.054 752.02 668.087 749.724Z"/><path fill="#FB8405" d="M638.724 749.911C642.538 749.867 663.275 749.152 664.956 750.609C664.964 752.61 665.314 752.42 664.29 753.502C661.576 754.318 657.457 754.018 654.491 753.968L654.514 766.125C654.558 767.343 654.593 768.562 654.618 769.781C654.664 772.236 654.963 773.62 653.22 775.424C651.461 775.889 652.285 775.941 650.657 775.401C649.363 772.898 649.913 757.902 649.959 753.96C647.599 754.058 642.329 754.563 640.397 753.584C638.879 752.815 639.037 751.555 638.724 749.911Z"/><path fill="#FB8405" d="M889.574 749.745C893.999 749.706 901.637 749.095 905.048 751.623L904.733 752.662C900.882 754.18 897.882 753.806 893.755 753.721C893.939 758.812 894.717 770.933 893.262 775.281C892.554 775.475 890.688 775.834 890.366 775.065C888.12 769.708 889.277 759.548 889.479 753.887C885.407 753.942 882.084 754.401 878.617 752.208L878.527 751.491C881.41 749.176 885.868 749.716 889.574 749.745Z"/><path fill="#FB8405" d="M774.944 749.904C776.821 749.921 777.333 749.822 779.117 750.521C780.395 752.703 779.949 767.827 779.976 771.534C784.291 771.544 791.837 770.384 795.63 772.292C796.819 772.89 796.98 774.241 797.32 775.429C790.084 775.62 782.145 775.297 774.998 775.893C775.104 767.23 775.086 758.566 774.944 749.904Z"/><path fill="#FB8405" d="M151 749.36C152.958 749.662 153.327 749.743 155.204 750.361C156.527 753.339 156.013 771.428 155.897 775.866C154.18 775.784 152.893 775.917 151.439 775.055C150.617 771.979 150.979 753.749 151 749.36Z"/><path fill="#FB8405" d="M803.989 749.622C805.828 749.721 805.988 749.719 807.748 750.195C809.122 752.293 808.511 772.197 808.258 775.806C806.418 775.715 806.24 775.689 804.455 775.235C803.435 773.229 803.325 752.565 803.989 749.622Z"/></svg>